<svg xmlns="http://www.w3.org/2000/svg" viewBox="0 0 64 64"><defs><style>.a{fill:#aecb29;}</style></defs><title>logoBasic</title><path class="a" d="M34.494,4.442a20.812,20.812,0,0,0-2.464.152,20.628,20.628,0,0,1,0,40.962,20.812,20.812,0,0,0,2.464.152c11.4,0,21.006-9.238,21.006-20.633S45.89,4.442,34.494,4.442Z"/><path class="a" d="M51.626,12.659A20.627,20.627,0,0,1,22.659,41.626,20.628,20.628,0,1,0,51.626,12.659Z"/><path class="a" d="M38.867,50.32a20.633,20.633,0,0,1-20.5-18.292,20.633,20.633,0,1,0,40.994,0A20.633,20.633,0,0,1,38.867,50.32Z"/><path class="a" d="M25.148,13.742A20.865,20.865,0,0,1,45.7,31.025c0.039-.521.066-1.046,0.066-1.577a20.633,20.633,0,0,0-41.265,0c0,0.573.03,1.14,0.075,1.7A20.865,20.865,0,0,1,25.148,13.742Z"/><path class="a" d="M8.074,38.679c0-11.4,9.486-20.633,21.187-20.633a21.514,21.514,0,0,1,10.9,2.94A20.631,20.631,0,1,0,12.782,51.642,20.213,20.213,0,0,1,8.074,38.679Z"/><path class="a" d="M13.615,38.926a20.618,20.618,0,0,1,17.056-20.3c-0.431-.028-0.859-0.067-1.3-0.067A20.887,20.887,0,0,0,8.7,39.187a20.591,20.591,0,0,0,23.083,20.22A20.632,20.632,0,0,1,13.615,38.926Z"/><path class="a" d="M38.442,55.8a20.609,20.609,0,0,1-16.9-32.44,20.973,20.973,0,0,0-7.177,15.383c0,0.355.033,0.7,0.053,1.054s0.028,0.707.066,1.054c0.026,0.242.075,0.477,0.109,0.717,0.066,0.454.127,0.91,0.222,1.354,0.024,0.114.06,0.224,0.087,0.337A20.571,20.571,0,0,0,37.443,59.065c-0.03.017-.066,0.032-0.1,0.049A20.605,20.605,0,0,0,51.2,51.375,20.538,20.538,0,0,1,38.442,55.8Z"/><path class="a" d="M46.136,28.77a20.509,20.509,0,0,1-4,12.169A20.538,20.538,0,1,0,12.745,12.562,20.627,20.627,0,0,1,46.136,28.77Z"/></svg>